<svg xmlns="http://www.w3.org/2000/svg" width="2048" height="1280" viewBox="0 0 2048 1280">
  <defs>
    <style>
      text{font-family:Segoe UI,Arial,sans-serif;fill:#172b4d}.title{font-size:38px;font-weight:750}.subtitle{font-size:20px;fill:#31527a}.group{font-size:17px;font-weight:750;letter-spacing:.7px}.head{font-size:18px;font-weight:750}.body{font-size:14px}.tiny{font-size:12px}.flow{font-size:13px;font-weight:650}.note{font-size:13px;fill:#405777}.box{fill:#fff;stroke-width:2}.shadow{filter:url(#shadow)}
    </style>
    <filter id="shadow"><feDropShadow dx="0" dy="3" stdDeviation="4" flood-opacity=".12"/></filter>
    <marker id="a" markerWidth="9" markerHeight="9" refX="8" refY="4.5" orient="auto"><path d="M0 0L9 4.5L0 9Z" fill="#233b59"/></marker>
    <marker id="ap" markerWidth="9" markerHeight="9" refX="8" refY="4.5" orient="auto"><path d="M0 0L9 4.5L0 9Z" fill="#6a51d9"/></marker>
    <marker id="ao" markerWidth="9" markerHeight="9" refX="8" refY="4.5" orient="auto"><path d="M0 0L9 4.5L0 9Z" fill="#ca7e00"/></marker>
    <marker id="ag" markerWidth="9" markerHeight="9" refX="8" refY="4.5" orient="auto"><path d="M0 0L9 4.5L0 9Z" fill="#268c50"/></marker>
    <symbol id="i-app" viewBox="0 0 32 32"><rect x="3" y="5" width="26" height="21" rx="3" fill="none" stroke="currentColor" stroke-width="2"/><path d="M3 10h26M8 7.5h1m3 0h1M9 21l4-5 4 3 6-7" fill="none" stroke="currentColor" stroke-width="2" stroke-linecap="round" stroke-linejoin="round"/></symbol>
    <symbol id="i-user" viewBox="0 0 32 32"><circle cx="16" cy="10" r="5" fill="none" stroke="currentColor" stroke-width="2"/><path d="M6 28c0-7 4-11 10-11s10 4 10 11" fill="none" stroke="currentColor" stroke-width="2" stroke-linecap="round"/></symbol>
    <symbol id="i-route" viewBox="0 0 32 32"><circle cx="6" cy="16" r="3" fill="none" stroke="currentColor" stroke-width="2"/><circle cx="26" cy="7" r="3" fill="none" stroke="currentColor" stroke-width="2"/><circle cx="26" cy="25" r="3" fill="none" stroke="currentColor" stroke-width="2"/><path d="M9 16h7c5 0 4-9 7-9M16 16c5 0 4 9 7 9" fill="none" stroke="currentColor" stroke-width="2"/></symbol>
    <symbol id="i-metric" viewBox="0 0 32 32"><path d="M4 27V5m0 22h24" fill="none" stroke="currentColor" stroke-width="2"/><path d="M7 22l6-7 5 4 8-11" fill="none" stroke="currentColor" stroke-width="2.5" stroke-linecap="round" stroke-linejoin="round"/></symbol>
    <symbol id="i-doc" viewBox="0 0 32 32"><path d="M7 3h12l7 7v19H7zM19 3v8h7M11 16h11M11 21h11M11 26h7" fill="none" stroke="currentColor" stroke-width="2" stroke-linejoin="round"/></symbol>
    <symbol id="i-trace" viewBox="0 0 32 32"><circle cx="6" cy="8" r="3" fill="none" stroke="currentColor" stroke-width="2"/><circle cx="25" cy="16" r="3" fill="none" stroke="currentColor" stroke-width="2"/><circle cx="8" cy="26" r="3" fill="none" stroke="currentColor" stroke-width="2"/><path d="M9 9l13 6M23 18L10 24" fill="none" stroke="currentColor" stroke-width="2"/></symbol>
    <symbol id="i-bell" viewBox="0 0 32 32"><path d="M7 23h18l-3-4v-7a6 6 0 00-12 0v7zM13 26a3 3 0 006 0" fill="none" stroke="currentColor" stroke-width="2" stroke-linejoin="round"/><path d="M16 4V2" stroke="currentColor" stroke-width="2"/></symbol>
    <symbol id="i-shield" viewBox="0 0 32 32"><path d="M16 3l11 4v8c0 7-4 12-11 15C9 27 5 22 5 15V7z" fill="none" stroke="currentColor" stroke-width="2"/><path d="M11 16l3 3 7-8" fill="none" stroke="currentColor" stroke-width="2.5" stroke-linecap="round"/></symbol>
    <symbol id="i-gear" viewBox="0 0 32 32"><circle cx="16" cy="16" r="6" fill="none" stroke="currentColor" stroke-width="2"/><path d="M16 2v5m0 18v5M2 16h5m18 0h5M6 6l4 4m12 12l4 4M26 6l-4 4M10 22l-4 4" stroke="currentColor" stroke-width="2" stroke-linecap="round"/></symbol>
    <symbol id="i-db" viewBox="0 0 32 32"><ellipse cx="16" cy="7" rx="11" ry="4" fill="none" stroke="currentColor" stroke-width="2"/><path d="M5 7v18c0 2 5 4 11 4s11-2 11-4V7M5 16c0 2 5 4 11 4s11-2 11-4" fill="none" stroke="currentColor" stroke-width="2"/></symbol>
    <symbol id="i-brain" viewBox="0 0 32 32"><path d="M14 6a5 5 0 00-9 3 5 5 0 00-1 8 5 5 0 004 8 5 5 0 006 2V6zm4 0a5 5 0 019 3 5 5 0 011 8 5 5 0 01-4 8 5 5 0 01-6 2V6zM9 12h5m-7 7h7m9-7h-5m7 7h-7" fill="none" stroke="currentColor" stroke-width="2" stroke-linecap="round"/></symbol>
    <symbol id="i-search" viewBox="0 0 32 32"><circle cx="13" cy="13" r="9" fill="none" stroke="currentColor" stroke-width="2.5"/><path d="M20 20l9 9" stroke="currentColor" stroke-width="3" stroke-linecap="round"/></symbol>
    <symbol id="i-spark" viewBox="0 0 32 32"><path d="M16 2l2.7 8.3L27 13l-8.3 2.7L16 24l-2.7-8.3L5 13l8.3-2.7zM25 22l1.2 3.8L30 27l-3.8 1.2L25 32l-1.2-3.8L20 27l3.8-1.2z" fill="none" stroke="currentColor" stroke-width="2" stroke-linejoin="round"/></symbol>
    <symbol id="i-docker" viewBox="0 0 32 32"><path d="M4 18h23c0 7-5 11-12 11S4 25 4 18zM8 14h5v4H8zm6 0h5v4h-5zm6 0h5v4h-5zM14 9h5v4h-5zm6 0h5v4h-5z" fill="none" stroke="currentColor" stroke-width="2" stroke-linejoin="round"/></symbol>
  </defs>
  <rect width="2048" height="1280" fill="#fbfcfe"/>
  <text x="1024" y="48" text-anchor="middle" class="title">SENTINEL - Current Logical Architecture</text>
  <text x="1024" y="80" text-anchor="middle" class="subtitle" style="font-weight:650;fill:#153a9a">Implemented MVP: alert ingestion, telemetry correlation, semantic retrieval, and incident RAG</text>
  <rect x="1680" y="20" width="305" height="42" rx="9" fill="#f0faf4" stroke="#299153" stroke-width="2"/>
  <text x="1832" y="47" text-anchor="middle" class="group" style="font-size:14px;fill:#18713c">IMPLEMENTED MVP - LIVE TODAY</text>

  <!-- client boundary -->
  <rect x="30" y="110" width="1988" height="1090" rx="20" fill="none" stroke="#2a9453" stroke-width="2" stroke-dasharray="10 8"/>
  <rect x="55" y="98" width="345" height="28" fill="#fbfcfe"/><text x="68" y="120" class="group" fill="#18713c">CLIENT-MANAGED ENVIRONMENT</text>

  <!-- external actors and sources -->
  <rect x="65" y="155" width="270" height="170" rx="12" class="box shadow" fill="#f0faf4" stroke="#299153"/>
  <text x="200" y="185" text-anchor="middle" class="group">TELEMETRY PRODUCER</text>
  <use href="#i-app" x="82" y="195" width="34" height="34" style="color:#238849"/>
  <text x="125" y="220" class="head">Client Application</text><text x="85" y="247" class="body">• OTLP metrics, logs, traces</text><text x="85" y="271" class="body">• Incident Lab sample app</text><text x="85" y="295" class="body">• Telemetry Generator (optional)</text>

  <rect x="65" y="385" width="270" height="150" rx="12" class="box shadow" fill="#f0faf4" stroke="#299153"/>
  <text x="200" y="417" text-anchor="middle" class="group">USERS</text>
  <use href="#i-user" x="82" y="426" width="34" height="34" style="color:#238849"/>
  <text x="125" y="452" class="head">Client Operator</text><text x="85" y="479" class="body">• SRE / DevOps</text><text x="85" y="503" class="body">• Platform / support</text>

  <!-- observability -->
  <rect x="390" y="140" width="450" height="410" rx="16" fill="#f4f8fd" stroke="#3477c9" stroke-width="2"/>
  <image href="Grafana-Icon.svg" x="394" y="149" width="25" height="26"/>
  <text x="620" y="171" text-anchor="middle" class="group" style="font-size:15px">LOCALLY HOSTED GRAFANA OBSERVABILITY STACK</text>
  <rect x="420" y="198" width="190" height="116" rx="10" class="box shadow" fill="#edf5ff" stroke="#3477c9"/>
  <text x="535" y="229" text-anchor="middle" class="head">OTel Collector</text><text x="440" y="259" class="body">• Receives OTLP</text><text x="440" y="283" class="body">• Routes signals by type</text>
  <use href="#i-route" x="431" y="207" width="29" height="29" style="color:#2871c9"/>
  <rect x="635" y="198" width="175" height="116" rx="10" class="box shadow" fill="#edf5ff" stroke="#3477c9"/>
  <text x="740" y="229" text-anchor="middle" class="head">Prometheus</text><text x="655" y="259" class="body">• Stores metrics</text><text x="655" y="283" class="body">• Evaluates rules</text>
  <use href="#i-metric" x="646" y="207" width="29" height="29" style="color:#2871c9"/>
  <rect x="420" y="345" width="190" height="116" rx="10" class="box shadow" fill="#edf5ff" stroke="#3477c9"/>
  <text x="515" y="376" text-anchor="middle" class="head">Loki</text><text x="440" y="406" class="body">• Persists logs</text><text x="440" y="430" class="body">• LogQL query API</text>
  <use href="#i-doc" x="431" y="354" width="28" height="28" style="color:#2871c9"/>
  <rect x="635" y="345" width="175" height="116" rx="10" class="box shadow" fill="#edf5ff" stroke="#3477c9"/>
  <text x="738" y="376" text-anchor="middle" class="head">Tempo</text><text x="655" y="406" class="body">• Persists traces</text><text x="655" y="430" class="body">• Trace query API</text>
  <use href="#i-trace" x="646" y="354" width="28" height="28" style="color:#2871c9"/>
  <rect x="470" y="485" width="290" height="48" rx="9" fill="#fff" stroke="#3477c9" stroke-width="2"/><text x="615" y="515" text-anchor="middle" class="head">Grafana dashboards / Explore</text>

  <!-- ingestion service -->
  <rect x="890" y="140" width="570" height="575" rx="16" fill="#f7f5ff" stroke="#6552d8" stroke-width="2"/>
  <text x="1175" y="172" text-anchor="middle" class="group">SENTINEL INGESTION</text>
  <rect x="920" y="198" width="220" height="116" rx="10" class="box shadow" fill="#f2efff" stroke="#6552d8"/>
  <text x="1045" y="229" text-anchor="middle" class="head">Alertmanager</text><text x="940" y="259" class="body">• Receives firing alert</text><text x="940" y="283" class="body">• Delivers webhook</text>
  <use href="#i-bell" x="934" y="207" width="30" height="30" style="color:#6048d8"/>
  <rect x="1190" y="198" width="235" height="155" rx="10" class="box shadow" fill="#f2efff" stroke="#6552d8"/>
  <text x="1308" y="229" text-anchor="middle" class="head">Sentinel API (C#)</text><text x="1210" y="259" class="body">• Validates Alertmanager JSON</text><text x="1210" y="283" class="body">• Persists every notification</text><text x="1210" y="307" class="body">• Creates/reuses occurrence</text><text x="1210" y="331" class="body">• Returns HTTP 202</text>
  <use href="#i-shield" x="1204" y="207" width="30" height="30" style="color:#6048d8"/>
  <rect x="920" y="402" width="505" height="170" rx="10" class="box shadow" fill="#f2efff" stroke="#6552d8"/>
  <text x="1195" y="434" text-anchor="middle" class="head">Ingestion Worker (C# deterministic pipeline)</text>
  <use href="#i-gear" x="942" y="415" width="32" height="32" style="color:#6048d8"/>
  <text x="945" y="466" class="body">• Polls and claims pending ingestion runs</text><text x="945" y="490" class="body">• Correlates Loki logs and Tempo traces by time, labels, and trace ID</text><text x="945" y="514" class="body">• Normalizes evidence and requests neural embedding</text><text x="945" y="538" class="body">• Stores canonical bundle and assigns similarity cluster</text>

  <!-- data and models -->
  <rect x="1510" y="140" width="470" height="575" rx="16" fill="#fff9ed" stroke="#ca7e00" stroke-width="2"/>
  <text x="1745" y="172" text-anchor="middle" class="group">DATA + MODEL SERVICES</text>
  <rect x="1540" y="198" width="410" height="155" rx="10" class="box shadow" fill="#fff7e5" stroke="#ca7e00"/>
  <text x="1745" y="229" text-anchor="middle" class="head">PostgreSQL + pgvector</text><text x="1565" y="259" class="body">• Notifications, occurrences, ingestion runs</text><text x="1565" y="283" class="body">• Canonical bundles, logs, traces</text><text x="1565" y="307" class="body">• 768-dimensional vectors + similarity clusters</text><text x="1565" y="331" class="body">• Counts distinct occurrences, not webhook retries</text>
  <use href="#i-db" x="1555" y="207" width="31" height="31" style="color:#bd7600"/>
  <rect x="1540" y="390" width="410" height="125" rx="10" class="box shadow" fill="#fff0f4" stroke="#d33f69"/>
  <text x="1745" y="421" text-anchor="middle" class="head">Ollama Embedding Service</text><text x="1565" y="451" class="body">• embeddinggemma</text><text x="1565" y="475" class="body">• Evidence and question embeddings</text><text x="1565" y="499" class="body">• Local neural semantic model</text>
  <use href="#i-brain" x="1555" y="399" width="31" height="31" style="color:#cc365e"/>
  <rect x="1540" y="553" width="410" height="125" rx="10" class="box shadow" fill="#fff0f4" stroke="#d33f69"/>
  <text x="1745" y="584" text-anchor="middle" class="head">Answer Model</text><text x="1565" y="614" class="body">• Ollama qwen3 or optional OpenAI</text><text x="1565" y="638" class="body">• Grounded answer from retrieved evidence</text><text x="1565" y="662" class="body">• Returns source IDs, logs, traces, recurrence</text>
  <use href="#i-spark" x="1555" y="562" width="31" height="31" style="color:#cc365e"/>

  <!-- rag -->
  <rect x="390" y="770" width="1070" height="255" rx="16" fill="#f7f5ff" stroke="#6552d8" stroke-width="2"/>
  <text x="925" y="802" text-anchor="middle" class="group">SENTINEL INCIDENT RAG</text>
  <rect x="430" y="835" width="280" height="145" rx="10" class="box shadow" fill="#f2efff" stroke="#6552d8"/>
  <text x="585" y="867" text-anchor="middle" class="head">POST /api/rag/query</text><text x="455" y="899" class="body">• Question + optional filters</text><text x="455" y="923" class="body">• Service / environment / limit</text><text x="455" y="947" class="body">• Read-only database connection</text>
  <use href="#i-shield" x="444" y="846" width="30" height="30" style="color:#6048d8"/>
  <rect x="790" y="835" width="280" height="145" rx="10" class="box shadow" fill="#fff7e5" stroke="#ca7e00"/>
  <text x="950" y="867" text-anchor="middle" class="head">Similarity Retrieval Logic</text><text x="815" y="899" class="body">• Requests question embedding</text><text x="815" y="923" class="body">• Queries PostgreSQL using pgvector</text><text x="815" y="947" class="body">• Returns logs, traces, and recurrence</text>
  <use href="#i-search" x="804" y="846" width="30" height="30" style="color:#bd7600"/>
  <rect x="1150" y="835" width="270" height="145" rx="10" class="box shadow" fill="#fff0f4" stroke="#d33f69"/>
  <text x="1300" y="867" text-anchor="middle" class="head">Grounded Generation</text><text x="1175" y="899" class="body">• Builds evidence context</text><text x="1175" y="923" class="body">• LLM creates final answer</text><text x="1175" y="947" class="body">• Preserves source evidence</text>
  <use href="#i-spark" x="1164" y="846" width="30" height="30" style="color:#cc365e"/>

  <!-- deployment -->
  <rect x="390" y="1060" width="1560" height="100" rx="14" fill="#f5f7fa" stroke="#8595aa" stroke-width="2"/>
  <text x="1170" y="1088" text-anchor="middle" class="group">LOCAL DOCKER DEPLOYMENT</text>
  <use href="#i-docker" x="955" y="1067" width="31" height="31" style="color:#52677f"/>
  <text x="430" y="1122" class="body">Sentinel API container</text><text x="680" y="1122" class="body">Sentinel Worker container</text><text x="955" y="1122" class="body">Sentinel RAG API container</text><text x="1230" y="1122" class="body">Grafana stack containers</text><text x="1505" y="1122" class="body">PostgreSQL / pgvector</text><text x="1750" y="1122" class="body">Ollama</text>

  <!-- numbered data flows -->
  <path d="M335 235H420" fill="none" stroke="#233b59" stroke-width="3" marker-end="url(#a)"/><text x="350" y="222" class="flow">1  OTLP</text>
  <path d="M610 235H635" fill="none" stroke="#233b59" stroke-width="3" marker-end="url(#a)"/><text x="615" y="220" class="tiny">metrics</text>
  <path d="M515 314V345" fill="none" stroke="#233b59" stroke-width="3" marker-end="url(#a)"/><text x="525" y="335" class="tiny">logs</text>
  <path d="M585 314L690 345" fill="none" stroke="#233b59" stroke-width="3" marker-end="url(#a)"/><text x="635" y="330" class="tiny">traces</text>
  <path d="M810 235H920" fill="none" stroke="#233b59" stroke-width="3" marker-end="url(#a)"/><text x="835" y="222" class="flow">2  firing alert</text>
  <path d="M1140 255H1190" fill="none" stroke="#233b59" stroke-width="3" marker-end="url(#a)"/><text x="1145" y="242" class="flow">3 webhook</text>
  <path d="M1425 275H1540" fill="none" stroke="#6a51d9" stroke-width="3" marker-end="url(#ap)"/><text x="1440" y="260" class="flow">4 durable save</text>
  <path d="M1540 350H1465V430H1425" fill="none" stroke="#6a51d9" stroke-width="3" stroke-dasharray="8 6" marker-end="url(#ap)"/><text x="1438" y="414" class="flow">5 claim pending run</text>
  <path d="M920 458H850V385H810" fill="none" stroke="#ca7e00" stroke-width="3" stroke-dasharray="8 6" marker-end="url(#ao)"/><text x="825" y="371" class="flow">6a query Tempo traces</text>
  <path d="M920 488H850V465H625V403H610" fill="none" stroke="#ca7e00" stroke-width="3" stroke-dasharray="8 6" marker-end="url(#ao)"/><text x="650" y="453" class="flow">6b query Loki logs</text>
  <path d="M1425 488H1540" fill="none" stroke="#ca7e00" stroke-width="3" stroke-dasharray="8 6" marker-end="url(#ao)"/><text x="1440" y="473" class="flow">7 embed</text>
  <path d="M1425 535H1480V330H1540" fill="none" stroke="#6a51d9" stroke-width="3" marker-end="url(#ap)"/><text x="1440" y="522" class="flow">8 store bundle</text>
  <path d="M335 455H360V905H430" fill="none" stroke="#233b59" stroke-width="3" marker-end="url(#a)"/><text x="370" y="890" class="flow">9 question</text>
  <path d="M710 907H790" fill="none" stroke="#ca7e00" stroke-width="3" stroke-dasharray="8 6" marker-end="url(#ao)"/><text x="724" y="892" class="flow">10 search</text>
  <path d="M900 835V745H1745V515" fill="none" stroke="#ca7e00" stroke-width="3" stroke-dasharray="8 6" marker-end="url(#ao)"/><text x="1040" y="732" class="flow">11a question embedding</text>
  <path d="M1000 835V720H1500V330H1540" fill="none" stroke="#ca7e00" stroke-width="3" stroke-dasharray="8 6" marker-end="url(#ao)"/><text x="1190" y="707" class="flow">11b vector similarity query in PostgreSQL</text>
  <path d="M1070 907H1150" fill="none" stroke="#233b59" stroke-width="3" marker-end="url(#a)"/><text x="1082" y="892" class="flow">12 context</text>
  <path d="M1420 930H1485V615H1540" fill="none" stroke="#233b59" stroke-width="3" marker-end="url(#a)"/><text x="1430" y="915" class="flow">13 generate</text>
  <path d="M1150 970H1090V1000H570V980" fill="none" stroke="#268c50" stroke-width="3" marker-end="url(#ag)"/><text x="745" y="1018" class="flow">14 answer + cited logs + traces + recurrence</text>

  <!-- legend -->
  <rect x="65" y="1010" width="270" height="150" rx="12" fill="#fff" stroke="#8595aa"/>
  <text x="85" y="1037" class="group">FLOW TYPES</text>
  <line x1="85" y1="1062" x2="135" y2="1062" stroke="#233b59" stroke-width="3" marker-end="url(#a)"/><text x="150" y="1067" class="tiny">synchronous call</text>
  <line x1="85" y1="1092" x2="135" y2="1092" stroke="#6a51d9" stroke-width="3" marker-end="url(#ap)"/><text x="150" y="1097" class="tiny">persist / process</text>
  <line x1="85" y1="1122" x2="135" y2="1122" stroke="#ca7e00" stroke-width="3" stroke-dasharray="7 5" marker-end="url(#ao)"/><text x="150" y="1127" class="tiny">read / query</text>
  <line x1="85" y1="1150" x2="135" y2="1150" stroke="#268c50" stroke-width="3" marker-end="url(#ag)"/><text x="150" y="1155" class="tiny">response</text>

  <rect x="1295" y="1208" width="690" height="42" rx="8" fill="#f7f9fc" stroke="#9aa9ba"/>
  <text x="1640" y="1234" text-anchor="middle" class="note">CURRENT SCOPE: local Docker MVP; deterministic ingestion; separate read-only RAG API</text>
</svg>
